<?xml version="1.0" standalone="no"?>
<!DOCTYPE svg PUBLIC "-//W3C//DTD SVG 20010904//EN"
 "http://www.w3.org/TR/2001/REC-SVG-20010904/DTD/svg10.dtd">
<svg version="1.0" xmlns="http://www.w3.org/2000/svg"
 width="700.000000pt" height="700.000000pt" viewBox="0 0 700.000000 700.000000"
 preserveAspectRatio="xMidYMid meet">
<metadata>
Created by potrace 1.14, written by Peter Selinger 2001-2017
</metadata>
<g transform="translate(0.000000,700.000000) scale(0.100000,-0.100000)"
fill="#000000" stroke="none">
<path d="M3247 5643 c-4 -3 -7 -217 -7 -475 0 -439 -1 -468 -17 -469 -10 0
-382 -1 -828 -2 l-810 -2 0 -272 -1 -273 1958 0 1958 0 -2 273 -3 272 -800 2
c-440 1 -818 2 -840 2 l-40 1 0 473 0 472 -281 3 c-154 1 -283 -1 -287 -5z"/>
<path d="M2504 3666 c-26 -74 -108 -285 -128 -331 -15 -33 -39 -87 -53 -120
-185 -415 -469 -844 -751 -1134 -56 -58 -102 -108 -102 -113 0 -4 10 -13 23
-19 69 -37 334 -221 438 -305 l67 -53 88 106 c49 58 94 110 99 117 6 6 49 63
96 126 305 411 583 919 794 1455 43 109 46 123 27 129 -21 5 -199 51 -425 110
-111 28 -170 39 -173 32z"/>
<path d="M4235 3580 c-137 -55 -256 -100 -262 -100 -20 0 -16 -9 52 -115 122
-190 314 -511 425 -710 184 -330 420 -822 475 -992 10 -29 21 -53 25 -53 9 0
62 21 140 57 30 14 71 32 90 40 19 8 63 28 98 44 35 16 65 29 68 29 3 0 31 12
62 26 31 15 74 34 94 43 l37 16 -48 115 c-84 200 -196 421 -351 690 -78 136
-103 177 -203 340 -74 120 -441 670 -446 670 -3 -1 -118 -46 -256 -100z"/>
</g>
</svg>
